<svg xmlns="http://www.w3.org/5000/svg" viewBox="0 0 553.41 118.64"><defs><style>.cls-1{fill:#27273f;}.cls-2{fill:#55f29f;}.cls-3{fill:#292a2b;}</style></defs>
    <g id="Capa_2" data-name="Capa 2">
        <g id="C_" data-name="C+"><path class="cls-1" d="M23.72,34.35a15.5,15.5,0,0,0,16-1.12,41,41,0,0,1,47.5,0A15.4,15.4,0,1,0,103.18,7a15.55,15.55,0,0,0-16,1.12,41.37,41.37,0,0,1-23.75,7.57A41.37,41.37,0,0,1,39.7,8.11,15.39,15.39,0,0,0,15.4,20.67,15.51,15.51,0,0,0,23.72,34.35Z"></path><path class="cls-1" d="M26.28,73A15.4,15.4,0,0,0,15.4,46.69a15.4,15.4,0,1,0,0,30.79A15.6,15.6,0,0,0,26.28,73Z"></path><path class="cls-1" d="M103.18,89.59a15.5,15.5,0,0,0-16,1.12,41,41,0,0,1-47.5,0,15.39,15.39,0,1,0,0,25.11,41,41,0,0,1,47.5,0,15.4,15.4,0,1,0,16-26.23Z"></path><path class="cls-1" d="M127.58,48.22A15.51,15.51,0,0,0,111.31,50,30.81,30.81,0,0,1,73,50a15.39,15.39,0,1,0,0,24.12,30.77,30.77,0,0,1,38.29,0,15.4,15.4,0,1,0,16.27-25.93Zm-.88,15.57h-3.9v4.38A1.81,1.81,0,0,1,121,70h-.17A1.81,1.81,0,0,1,119,68.17V63.79h-3.9a1.81,1.81,0,1,1,0-3.62H119v-4.4A1.82,1.82,0,0,1,120.82,54H121a1.82,1.82,0,0,1,1.81,1.82v4.4h3.9a1.81,1.81,0,0,1,0,3.62Z"></path>
        </g>
    </g>
</svg>